<?xml version="1.0" standalone="no"?>
<!DOCTYPE svg PUBLIC "-//W3C//DTD SVG 20010904//EN"
 "http://www.w3.org/TR/2001/REC-SVG-20010904/DTD/svg10.dtd">
<svg version="1.0" xmlns="http://www.w3.org/2000/svg"
 width="96.000000pt" height="96.000000pt" viewBox="0 0 96.000000 96.000000"
 preserveAspectRatio="xMidYMid meet">

<g transform="translate(0.000000,96.000000) scale(0.100000,-0.100000)"
fill="#000000" stroke="none">
<path d="M360 950 c0 -5 -12 -13 -27 -16 -102 -25 -224 -128 -278 -237 -19
-38 -35 -76 -35 -83 0 -8 -4 -14 -10 -14 -6 0 -10 -47 -10 -120 0 -73 4 -120
10 -120 6 0 10 -6 10 -14 0 -7 16 -45 35 -83 54 -109 176 -212 278 -237 15 -3
27 -11 27 -16 0 -6 48 -10 120 -10 72 0 120 4 120 10 0 5 12 13 28 16 101 25
223 128 277 237 19 38 35 76 35 83 0 8 5 14 10 14 6 0 10 47 10 120 0 73 -4
120 -10 120 -5 0 -10 6 -10 14 0 7 -16 45 -35 83 -54 109 -176 212 -277 237
-16 3 -28 11 -28 16 0 6 -48 10 -120 10 -72 0 -120 -4 -120 -10z m-185 -372
c19 -9 28 -9 37 0 18 18 42 14 56 -9 10 -16 19 -19 41 -14 47 10 64 -36 37
-105 -3 -8 -2 -22 3 -30 8 -12 13 -12 30 4 12 11 21 24 21 31 0 19 47 57 66
53 30 -5 29 -36 0 -44 -31 -7 -35 -38 -9 -66 23 -26 9 -33 -37 -18 -30 10 -46
10 -64 2 -38 -17 -52 6 -36 63 13 45 9 75 -10 75 -16 0 -47 -57 -54 -101 -4
-25 -12 -39 -21 -39 -19 0 -19 6 1 86 15 60 15 67 1 81 -13 13 -19 14 -31 4
-19 -16 -46 -96 -46 -137 0 -36 -15 -53 -32 -36 -8 8 -7 33 4 87 12 62 12 79
1 93 -25 34 -7 42 42 20z m495 -81 c32 -2 35 -5 40 -36 7 -48 24 -49 51 -1 24
42 62 61 81 42 16 -16 3 -40 -24 -44 -17 -2 -23 -9 -23 -28 0 -23 3 -25 40
-23 l40 3 -25 -20 c-18 -15 -33 -19 -55 -14 -16 3 -48 6 -70 7 -39 2 -40 3
-45 41 -3 22 -10 41 -16 43 -12 4 -32 -32 -36 -67 -4 -36 -23 -21 -24 20 -2
57 -3 60 -19 60 -17 0 -35 -39 -35 -76 0 -25 -17 -30 -53 -15 -18 7 -18 8 -2
21 10 8 26 34 36 58 l19 44 43 -6 c23 -4 58 -8 77 -9z"/>
</g>
</svg>
